<svg width="67" height="68" viewBox="0 0 67 68" fill="none" xmlns="http://www.w3.org/2000/svg">
<g clip-path="url(#clip0_404_3368)">
<path d="M14.6232 6.65504L15.173 6.32854L17.4494 8.20115L17.6809 8.42203L17.5941 8.11472L17.025 5.22417L17.5362 4.91687L18.2211 8.6621L17.5941 9.03663L14.6039 6.65504H14.6232Z" fill="white"/>
<path d="M18.5104 6.44374C18.0088 5.33938 18.3078 4.47509 19.2146 4.05255C20.1502 3.63001 21.0087 4.02374 21.491 5.08009C21.9926 6.17485 21.6935 7.03914 20.7772 7.45207C19.8415 7.87461 18.9927 7.50009 18.5104 6.44374ZM20.9412 5.32977C20.5746 4.54231 20.0345 4.24462 19.4268 4.51351C18.8191 4.792 18.6937 5.37779 19.0602 6.18446C19.4171 6.97192 19.9669 7.26001 20.565 6.98152C21.1727 6.70303 21.3077 6.11723 20.9412 5.32017V5.32977Z" fill="white"/>
<path d="M20.8833 2.07423L21.4428 1.87256L21.7225 2.612L21.163 2.81367L20.8833 2.06462V2.07423ZM21.327 3.27462L21.8865 3.07295L23.1308 6.42446L22.5713 6.62612L21.327 3.27462Z" fill="white"/>
<path d="M22.5906 2.81378L23.1597 2.64092L23.3237 3.1691C23.4298 2.67933 23.7384 2.37203 24.1532 2.24719C24.2882 2.20878 24.4233 2.19918 24.5005 2.23759L24.6548 2.74656C24.5487 2.74656 24.4233 2.76576 24.2882 2.81378C23.6034 3.02505 23.4394 3.53402 23.6227 4.15822L24.2111 6.06925L23.642 6.24211L22.5906 2.82338V2.81378Z" fill="white"/>
<path d="M26.8252 6.84708L25.9763 1.86304L26.5647 1.76701L26.6419 2.20876C26.8155 1.83423 27.1242 1.58455 27.5486 1.51733C28.4842 1.35407 29.1691 1.94947 29.362 3.10185C29.5646 4.29264 29.1016 5.05129 28.1756 5.20494C27.7608 5.28177 27.3846 5.15693 27.0952 4.87843L27.4135 6.75105L26.8252 6.84708ZM26.8637 3.52439C27.0084 4.37907 27.4425 4.81121 28.0502 4.70558C28.6675 4.59994 28.9183 4.07177 28.764 3.19788C28.6193 2.3528 28.1949 1.92066 27.5872 2.02629C26.9698 2.13193 26.719 2.6601 26.8637 3.51479V3.52439Z" fill="white"/>
<path d="M29.5453 0.057619L30.1337 0L30.5774 4.82079L29.989 4.87841L29.5453 0.057619Z" fill="white"/>
<path d="M33.3265 1.15234H33.9245L33.9727 4.71512H33.3747V4.23496C33.1336 4.61909 32.7574 4.81115 32.2944 4.81115C31.542 4.81115 31.0983 4.38861 31.079 3.56274L31.0404 1.18115H31.6384L31.6674 3.4379C31.6674 3.97567 31.9182 4.31178 32.4391 4.31178C33.0178 4.31178 33.3554 3.77401 33.3458 3.26504L33.3168 1.15234H33.3265Z" fill="white"/>
<path d="M37.3294 4.00446C37.2619 4.66708 36.6349 5.032 35.7958 4.95518C34.9469 4.87835 34.3971 4.4174 34.3392 3.56272L34.9276 3.62034C34.9566 4.1293 35.3038 4.4366 35.8536 4.48462C36.3938 4.53264 36.6928 4.32137 36.7314 3.98526C36.8279 3.01534 34.455 3.60113 34.5997 2.12224C34.6479 1.58447 35.1205 1.12351 35.9983 1.20994C36.77 1.28677 37.3102 1.6997 37.3391 2.5928L36.7507 2.53518C36.7121 1.96859 36.4227 1.73812 35.9212 1.6901C35.4774 1.65169 35.1977 1.84375 35.1688 2.14145C35.0723 3.13057 37.4741 2.53518 37.3294 4.00446Z" fill="white"/>
<path d="M38.9017 3.41875C39.0175 2.92899 39.5094 2.62169 40.011 2.72732C40.5029 2.84256 40.8213 3.33232 40.7152 3.82208C40.5994 4.32145 40.0978 4.62875 39.6059 4.51351C39.1139 4.39827 38.7956 3.90851 38.9114 3.40914L38.9017 3.41875Z" fill="white"/>
<path d="M42.5768 2.55444L43.1748 2.77532V5.71388L43.1362 6.03079L43.3292 5.7715L45.2101 3.50516L45.7792 3.70682L43.3099 6.60698L42.625 6.3573L42.5864 2.55444H42.5768Z" fill="white"/>
<path d="M45.2198 5.40662C45.7503 4.32147 46.6184 3.99496 47.5251 4.4367C48.4511 4.88805 48.6826 5.79075 48.1714 6.83749C47.6409 7.92265 46.7824 8.22995 45.8757 7.79781C44.9497 7.34646 44.7086 6.45337 45.2198 5.40662ZM47.6216 6.57821C48.0074 5.80035 47.8917 5.18575 47.2936 4.89766C46.6956 4.60956 46.1554 4.87845 45.7599 5.67551C45.3838 6.45337 45.4995 7.04876 46.0879 7.34646C46.6859 7.63456 47.2261 7.36567 47.612 6.58781L47.6216 6.57821Z" fill="white"/>
<path d="M49.4736 5.57938L49.9848 5.87708L48.1617 8.95009L47.6505 8.65239L49.4736 5.57938ZM50.1198 4.48462L50.6311 4.78232L50.226 5.46414L49.7147 5.16644L50.1198 4.48462Z" fill="white"/>
<path d="M50.6118 6.25171L51.1037 6.57822L50.7951 7.03917C51.2388 6.80869 51.6728 6.85671 52.0297 7.09679C52.1455 7.17361 52.2323 7.26964 52.2612 7.35607L51.9622 7.79782C51.8947 7.71139 51.7982 7.63456 51.6825 7.55774C51.0844 7.16401 50.5829 7.35607 50.226 7.89385L49.1167 9.5552L48.6248 9.22869L50.6118 6.26131V6.25171Z" fill="white"/>
<path d="M50.1681 12.0808L53.5152 8.27795L53.9589 8.67168L53.6695 9.00779C54.0747 8.91176 54.4605 8.98859 54.7788 9.26708C55.4926 9.89129 55.4637 10.794 54.7016 11.6679C53.901 12.5802 53.0136 12.6954 52.3095 12.0808C51.9912 11.8023 51.8465 11.447 51.8851 11.0437L50.6214 12.4745L50.1777 12.0808H50.1681ZM52.7821 10.0065C52.213 10.6595 52.1455 11.2645 52.6085 11.6679C53.0811 12.0808 53.6502 11.9368 54.2386 11.2645C54.8077 10.6211 54.8656 10.0161 54.4123 9.61279C53.9396 9.19986 53.3705 9.3343 52.7918 9.99692L52.7821 10.0065Z" fill="white"/>
<path d="M57.1806 9.90088L57.5954 10.3234L54.1229 13.7037L53.7081 13.2812L57.1806 9.90088Z" fill="white"/>
<path d="M58.7143 13.502L59.1002 13.9534L56.3511 16.2486L55.9653 15.7972L56.3414 15.4803C55.8977 15.5379 55.5023 15.3747 55.2032 15.0193C54.7209 14.4432 54.7692 13.8286 55.4058 13.2908L57.2385 11.7543L57.6243 12.2056L55.8784 13.6653C55.4637 14.011 55.3576 14.4143 55.6952 14.8177C56.0714 15.2594 56.6983 15.1826 57.0842 14.8561L58.7047 13.4924L58.7143 13.502Z" fill="white"/>
<path d="M59.0133 18.3804C58.4538 18.7453 57.769 18.4957 57.306 17.7946C56.8333 17.0936 56.843 16.3734 57.47 15.7972L57.7979 16.2869C57.4314 16.6326 57.4024 17.0936 57.7111 17.545C58.0101 17.9963 58.367 18.0923 58.6467 17.9099C59.457 17.3721 57.5085 15.9124 58.7432 15.0865C59.1966 14.7888 59.8525 14.8561 60.3348 15.5859C60.7688 16.2293 60.7785 16.9111 60.1033 17.4969L59.7753 17.0072C60.1901 16.623 60.1901 16.2485 59.9103 15.8356C59.6596 15.4707 59.3316 15.3746 59.0904 15.5379C58.2609 16.0949 60.2383 17.5642 59.0133 18.3804Z" fill="white"/>
<path d="M60.4698 19.2159C60.9231 18.9855 61.4826 19.1775 61.7045 19.6289C61.9263 20.0802 61.7527 20.6372 61.2993 20.8677C60.8363 21.0982 60.2865 20.9061 60.055 20.4547C59.8235 20.0034 60.0068 19.4464 60.4698 19.2159Z" fill="white"/>
<path d="M63.4697 21.5111L63.6819 22.1161L61.3862 23.9695L61.1258 24.152L61.4441 24.1328L64.3957 24.152L64.5983 24.7186L60.7689 24.6417L60.5277 23.9599L63.4697 21.5207V21.5111Z" fill="white"/>
<path d="M62.9199 25.3619C64.1063 25.0834 64.8972 25.554 65.1287 26.5239C65.3602 27.5226 64.8008 28.2813 63.6626 28.5406C62.4858 28.8191 61.6948 28.3485 61.4633 27.369C61.2318 26.3703 61.772 25.6212 62.9102 25.3523L62.9199 25.3619ZM63.5275 27.9548C64.3764 27.7531 64.7815 27.2826 64.6272 26.6392C64.4728 25.9957 63.923 25.7461 63.0549 25.9477C62.2157 26.1398 61.8202 26.6199 61.9649 27.2538C62.1192 27.8972 62.6691 28.1469 63.5179 27.9452L63.5275 27.9548Z" fill="white"/>
<path d="M65.4761 28.7519L65.5629 29.3377L62.0229 29.8754L61.936 29.2897L65.4761 28.7519ZM66.7397 28.5598L66.8265 29.1456L66.0355 29.2608L65.9487 28.6751L66.7397 28.5598Z" fill="white"/>
<path d="M65.6689 30.0483L65.7268 30.6341L65.177 30.6917C65.64 30.8934 65.8715 31.2487 65.9197 31.6809C65.9294 31.8249 65.9197 31.9498 65.8619 32.0266L65.3313 32.0746C65.3506 31.969 65.3603 31.8441 65.341 31.7001C65.2735 30.9894 64.8008 30.7302 64.1545 30.7878L62.1579 30.9798L62.1 30.3941L65.6689 30.0483Z" fill="white"/>
<path d="M60.8652 33.3903L65.9293 33.5535L65.91 34.1489L65.4663 34.1297C65.7943 34.3794 65.9775 34.7251 65.9679 35.1476C65.9389 36.0983 65.2155 36.6457 64.0484 36.6073C62.833 36.5689 62.1867 35.9639 62.2157 35.0324C62.2253 34.6099 62.4182 34.2737 62.7558 34.0529L60.8459 33.9857L60.8652 33.3903ZM64.1255 34.0913C63.2574 34.0625 62.7462 34.3986 62.7269 35.0036C62.7076 35.6182 63.1802 35.9735 64.0677 36.0023C64.9358 36.0311 65.4374 35.695 65.4567 35.09C65.4759 34.4658 65.0129 34.1105 64.1352 34.0817L64.1255 34.0913Z" fill="white"/>
<path d="M67.0001 37.4044L66.9325 37.9901L62.1 37.4524L62.1675 36.8666L67.0001 37.4044Z" fill="white"/>
<path d="M65.1577 40.8711L65.042 41.4473L61.5212 40.7847L61.637 40.1989L62.1193 40.2853C61.7913 39.978 61.6756 39.5747 61.7624 39.1137C61.9071 38.3839 62.4183 38.0286 63.2286 38.1822L65.5821 38.624L65.4664 39.2098L63.2286 38.7872C62.698 38.6912 62.3122 38.8545 62.2157 39.373C62.1096 39.9396 62.563 40.3718 63.0646 40.4678L65.1481 40.8615L65.1577 40.8711Z" fill="white"/>
<path d="M61.5695 44.1842C60.9329 43.9921 60.6917 43.3007 60.9425 42.5036C61.1933 41.6969 61.7528 41.2456 62.592 41.3608L62.4183 41.9274C61.9168 41.8602 61.5406 42.1291 61.3862 42.6573C61.2319 43.1758 61.3862 43.5119 61.7045 43.608C62.6402 43.8865 62.5341 41.4665 63.952 41.889C64.4729 42.0523 64.8298 42.5996 64.579 43.4351C64.3571 44.1746 63.8363 44.6163 62.9489 44.4723L63.1225 43.9057C63.6819 43.9825 63.9713 43.752 64.1257 43.2623C64.251 42.8397 64.1256 42.5324 63.8363 42.446C62.8813 42.1579 62.9971 44.6163 61.5791 44.1842H61.5695Z" fill="white"/>
<path d="M61.8299 45.8551C62.2929 46.0568 62.4954 46.6138 62.2929 47.0651C62.0807 47.5261 61.5405 47.7373 61.0775 47.5357C60.6145 47.3244 60.4023 46.777 60.6145 46.3161C60.8267 45.8551 61.3669 45.6438 61.8395 45.8551H61.8299Z" fill="white"/>
<path d="M61.9457 49.6292L61.6081 50.1766L58.7143 49.5716L58.4057 49.4851L58.6275 49.7252L60.4795 52.0108L60.1612 52.5197L57.798 49.5235L58.1742 48.9089L61.936 49.6388L61.9457 49.6292Z" fill="white"/>
<path d="M58.5985 51.6363C59.5631 52.3757 59.6981 53.288 59.0808 54.0755C58.4538 54.8821 57.5085 54.9302 56.5921 54.2195C55.6372 53.4801 55.5022 52.5774 56.1195 51.7899C56.7465 50.9833 57.6821 50.9256 58.5985 51.6363ZM56.9587 53.7394C57.6435 54.2675 58.2705 54.2771 58.6756 53.7586C59.0808 53.2304 58.9264 52.6446 58.2223 52.1164C57.5374 51.5883 56.9201 51.5787 56.515 52.0972C56.1099 52.6254 56.2642 53.2016 56.9587 53.7394Z" fill="white"/>
<path d="M57.5857 55.7464L57.1902 56.1881L54.528 53.7873L54.9234 53.3456L57.5857 55.7464ZM58.531 56.6011L58.1355 57.0428L57.5471 56.5146L57.9426 56.0729L58.531 56.6011Z" fill="white"/>
<path d="M56.679 56.7163L56.2546 57.1292L55.8688 56.7355C56.0038 57.2156 55.8688 57.6286 55.5601 57.9263C55.4637 58.0223 55.3479 58.0895 55.2611 58.0991L54.8849 57.7246C54.9814 57.6766 55.0778 57.5998 55.1839 57.5037C55.6952 57.0044 55.5987 56.4666 55.1454 56.0152L53.7371 54.594L54.1615 54.181L56.679 56.7163Z" fill="white"/>
<path d="M51.0555 55.1029L54.1325 59.117L53.6598 59.4819L53.3897 59.1266C53.409 59.5396 53.2547 59.9045 52.9171 60.1542C52.1551 60.7304 51.2773 60.5191 50.5635 59.5972C49.8304 58.6369 49.8883 57.7534 50.631 57.1868C50.9686 56.9275 51.3545 56.8603 51.7403 56.9755L50.5828 55.4582L51.0555 55.1029ZM52.5795 58.0607C52.049 57.3693 51.4702 57.1868 50.9783 57.5613C50.4863 57.9358 50.5153 58.5216 51.0458 59.2227C51.5667 59.9045 52.1454 60.0869 52.6277 59.7124C53.1293 59.3379 53.1004 58.7521 52.5698 58.0511L52.5795 58.0607Z" fill="white"/>
<path d="M51.8175 62.3822L51.3159 62.7087L48.673 58.637L49.1746 58.3201L51.8175 62.3918V62.3822Z" fill="white"/>
<path d="M47.9688 63.1504L47.4479 63.4289L45.731 60.2983L46.2518 60.0198L46.4833 60.4423C46.5123 59.991 46.7534 59.6453 47.1682 59.4244C47.8241 59.0691 48.4318 59.2419 48.8273 59.9622L49.9751 62.0557L49.4543 62.3342L48.3643 60.3463C48.1038 59.8757 47.7373 59.6837 47.2743 59.9334C46.7631 60.2119 46.7148 60.8361 46.956 61.2778L47.9688 63.1312V63.1504Z" fill="white"/>
<path d="M43.088 62.4974C42.8372 61.8828 43.2231 61.2682 44.0044 60.9417C44.7953 60.6152 45.4995 60.7689 45.9432 61.4891L45.3934 61.7196C45.1233 61.2874 44.6796 61.1722 44.1684 61.3835C43.6668 61.5851 43.5028 61.9212 43.6282 62.2285C44.0044 63.1312 45.8274 61.5083 46.3869 62.8816C46.5991 63.3809 46.3869 64.0051 45.5766 64.3412C44.8629 64.6389 44.1876 64.5141 43.7439 63.7458L44.2937 63.5154C44.5928 63.9955 44.9593 64.0723 45.4223 63.8803C45.8371 63.7074 45.9914 63.4097 45.8757 63.1312C45.4898 62.2093 43.6571 63.8515 43.088 62.4878V62.4974Z" fill="white"/>
<path d="M41.9595 63.7555C42.0945 64.2452 41.7955 64.7446 41.3035 64.879C40.8116 65.0135 40.3004 64.7254 40.175 64.2356C40.0399 63.7459 40.339 63.2369 40.8212 63.1024C41.3132 62.968 41.8244 63.2561 41.9595 63.7555Z" fill="white"/>
<path d="M39.1332 66.2138L38.4966 66.3002L37.1269 63.6978L37.0015 63.4001L36.9533 63.717L36.3552 66.5979L35.7572 66.6748L36.5867 62.9583L37.3102 62.8623L39.1236 66.2138H39.1332Z" fill="white"/>
<path d="M35.4389 64.9174C35.4678 66.1274 34.8601 66.8092 33.8473 66.838C32.8249 66.8668 32.1882 66.1658 32.1497 65.0038C32.1207 63.8034 32.7381 63.1216 33.7412 63.0928C34.7637 63.064 35.4003 63.7458 35.4292 64.9078L35.4389 64.9174ZM32.767 64.9846C32.7863 65.8489 33.1721 66.3387 33.8377 66.3195C34.5032 66.3003 34.8601 65.8105 34.8312 64.927C34.8023 64.0627 34.4261 63.5826 33.7605 63.6018C33.0949 63.621 32.7381 64.1107 32.767 64.9846Z" fill="white"/>
<path d="M31.5517 67.9999L30.9536 67.9711L30.9922 67.1837L31.5902 67.2125L31.5517 68.0096V67.9999ZM31.6095 66.7323L31.0115 66.7035L31.1948 63.1407L31.7928 63.1696L31.6095 66.7323Z" fill="white"/>
<path d="M30.2494 66.6556L29.661 66.5883L29.7188 66.0409C29.4295 66.4443 29.0243 66.6075 28.5999 66.5595C28.4552 66.5499 28.3395 66.5019 28.272 66.4347L28.3298 65.9065C28.4263 65.9545 28.5517 65.9737 28.6964 65.9929C29.4102 66.0698 29.7671 65.6568 29.8346 65.023L30.0468 63.0352L30.6352 63.1024L30.259 66.6459L30.2494 66.6556Z" fill="white"/>
<path d="M27.9344 61.2778L26.7769 66.1946L26.1981 66.0601L26.3043 65.628C25.9956 65.9065 25.6194 66.0121 25.2046 65.9161C24.2786 65.6952 23.8735 64.8885 24.1436 63.7554C24.4233 62.5742 25.1468 62.0652 26.0631 62.2765C26.4779 62.3725 26.7769 62.6222 26.9312 62.9967L27.3653 61.1433L27.944 61.2778H27.9344ZM26.6033 64.3316C26.8058 63.4865 26.5743 62.9199 25.9763 62.7855C25.3686 62.6414 24.9345 63.0351 24.732 63.8994C24.5294 64.7349 24.7609 65.2919 25.359 65.4359C25.9666 65.58 26.4104 65.1958 26.6129 64.3412L26.6033 64.3316Z" fill="white"/>
<path d="M22.7836 66.4827L22.2145 66.3002L23.6999 61.6907L24.269 61.8731L22.7836 66.4827Z" fill="white"/>
<path d="M19.7162 63.9954L19.1664 63.7746L20.5168 60.4711L21.0666 60.6919L20.8833 61.1433C21.2499 60.884 21.6743 60.8552 22.1084 61.0281C22.8029 61.3065 23.044 61.8827 22.7353 62.651L21.8286 64.8597L21.2788 64.6388L22.1373 62.5453C22.3399 62.046 22.253 61.6427 21.7611 61.441C21.2209 61.2201 20.7097 61.5754 20.5168 62.0556L19.7162 64.0146V63.9954Z" fill="white"/>
<path d="M17.189 59.8469C17.5073 59.2611 18.2307 59.1651 18.9735 59.5684C19.7258 59.9718 20.0538 60.6056 19.7741 61.4123L19.2532 61.1338C19.4172 60.6536 19.2242 60.2407 18.7323 59.9814C18.2597 59.7221 17.8931 59.8085 17.7291 60.0966C17.2661 60.9513 19.6776 61.3354 18.9735 62.6415C18.713 63.1216 18.1053 63.3617 17.324 62.9392C16.6392 62.5742 16.3112 61.9788 16.6295 61.1434L17.1504 61.4219C16.9575 61.9596 17.1311 62.2861 17.5845 62.5262C17.9799 62.7375 18.3079 62.6607 18.4526 62.4014C18.9252 61.5275 16.4848 61.1434 17.189 59.8469Z" fill="white"/>
<path d="M15.472 59.7605C15.1729 60.1734 14.5942 60.2598 14.1794 59.9621C13.7646 59.6644 13.6682 59.0882 13.9672 58.6849C14.2662 58.272 14.845 58.1759 15.2597 58.4736C15.6745 58.7713 15.771 59.3475 15.472 59.7605Z" fill="white"/>
<path d="M11.4786 58.8866L11.0156 58.4449L12.2213 55.756L12.3757 55.4679L12.0959 55.6311L9.46263 56.9564L9.02856 56.5434L12.4721 54.8821L13.0026 55.3814L11.4979 58.8866H11.4786Z" fill="white"/>
<path d="M10.2149 55.2086C9.28895 55.9864 8.36295 55.9288 7.71668 55.1701C7.05111 54.3923 7.20545 53.4608 8.10251 52.7117C9.02851 51.9339 9.94486 51.9915 10.5911 52.7597C11.2567 53.5376 11.112 54.4595 10.2149 55.2086ZM8.49799 53.1727C7.83243 53.7297 7.68774 54.3347 8.11216 54.834C8.54622 55.343 9.14426 55.3046 9.82911 54.738C10.485 54.181 10.6297 53.5856 10.2053 53.0863C9.77124 52.5773 9.1732 52.6061 8.50763 53.1727H8.49799Z" fill="white"/>
<path d="M5.35348 54.1042L5.00623 53.6241L5.6525 53.1631L5.99975 53.6433L5.35348 54.1042ZM6.39523 53.3552L6.04798 52.875L8.96102 50.7911L9.30827 51.2713L6.39523 53.3552Z" fill="white"/>
<path d="M5.61389 52.27L5.29558 51.7706L5.75858 51.4729C5.257 51.5017 4.88081 51.2904 4.64931 50.9255C4.57214 50.8103 4.53356 50.6854 4.5432 50.599L4.99656 50.3109C5.0255 50.4166 5.08337 50.5318 5.16054 50.647C5.54637 51.2424 6.08654 51.2712 6.63635 50.9255L8.32437 49.85L8.64269 50.3493L5.62354 52.27H5.61389Z" fill="white"/>
<path d="M8.37264 47.1227L3.79087 49.2834L3.54007 48.7456L3.9452 48.5535C3.54007 48.4863 3.21212 48.2558 3.02884 47.8717C2.62372 47.017 3.00955 46.2008 4.07059 45.7014C5.17022 45.1828 6.01905 45.4325 6.42418 46.268C6.60745 46.6521 6.5978 47.0362 6.39524 47.3916L8.12185 46.5753L8.37264 47.1131V47.1227ZM5.15093 47.987C5.94189 47.6124 6.24091 47.0843 5.98047 46.5369C5.72003 45.9799 5.13164 45.8839 4.33103 46.2584C3.54972 46.6233 3.2507 47.1515 3.51114 47.6989C3.78122 48.2654 4.35997 48.3615 5.15093 47.987Z" fill="white"/>
<path d="M1.08037 46.3544L0.868164 45.7975L5.41135 44.0785L5.62356 44.6355L1.08037 46.3544Z" fill="white"/>
<path d="M1.11894 42.4267L0.954956 41.8601L4.38888 40.8518L4.55285 41.4184L4.08985 41.5528C4.52392 41.6777 4.81329 41.985 4.93869 42.4363C5.1509 43.1566 4.85188 43.7039 4.06092 43.9344L1.76521 44.6066L1.60123 44.0401L3.78119 43.3966C4.30206 43.243 4.5625 42.9261 4.41781 42.4171C4.25383 41.8601 3.65579 41.6777 3.16385 41.8313L1.12858 42.4267H1.11894Z" fill="white"/>
<path d="M2.79734 37.8365C3.45326 37.7213 3.98378 38.2206 4.12847 39.0561C4.2828 39.8916 3.98378 40.5446 3.18318 40.8231L3.07707 40.2373C3.55936 40.074 3.76193 39.6515 3.66547 39.1137C3.56901 38.5856 3.27963 38.3455 2.95168 38.4127C1.98709 38.5856 3.19282 40.6983 1.7363 40.9575C1.19613 41.0536 0.627029 40.7271 0.472696 39.8628C0.337654 39.1041 0.588446 38.4703 1.44693 38.2014L1.55303 38.7872C1.01286 38.9697 0.868175 39.3154 0.954988 39.8148C1.03215 40.2469 1.30224 40.4582 1.59161 40.4102C2.57549 40.2373 1.35047 38.0958 2.80699 37.8365H2.79734Z" fill="white"/>
<path d="M1.7942 36.4632C1.29262 36.492 0.858555 36.0983 0.829618 35.5893C0.80068 35.0899 1.19616 34.6482 1.69774 34.6194C2.20897 34.5906 2.64304 34.9939 2.67197 35.4933C2.70091 35.9926 2.30543 36.4344 1.7942 36.4632Z" fill="white"/>
<path d="M14.4109 9.97771C13.9093 10.0065 13.4753 9.61279 13.4463 9.10382C13.4174 8.60445 13.8129 8.16271 14.3144 8.1339C14.8257 8.10509 15.2597 8.50842 15.2887 9.00779C15.3176 9.50715 14.9221 9.9489 14.4109 9.97771Z" fill="white"/>
<path d="M2.28547e-06 32.4491L0.0675232 31.8153L2.93234 31.1046L3.25065 31.047L2.95163 30.9318L0.279732 29.6738L0.337607 29.0784L3.77153 30.7589L3.69436 31.4792L-0.00964355 32.4491H2.28547e-06Z" fill="white"/>
<path d="M2.18972 28.8672C1.00328 28.6079 0.482404 27.8396 0.704258 26.8697C0.926112 25.871 1.75565 25.4292 2.90351 25.6789C4.0803 25.9382 4.59153 26.6968 4.37932 27.6764C4.15747 28.6751 3.33757 29.1168 2.19936 28.8672H2.18972ZM2.76847 26.2647C1.91963 26.0822 1.35053 26.3319 1.20584 26.9753C1.06115 27.6284 1.45663 28.0893 2.32476 28.2718C3.17359 28.4542 3.73305 28.2045 3.87774 27.5611C4.02243 26.9081 3.63659 26.4568 2.77811 26.2647H2.76847Z" fill="white"/>
<path d="M0.241211 23.9695L0.424482 23.403L1.1865 23.643L1.01288 24.2096L0.250857 23.9695H0.241211ZM1.45659 24.3537L1.63021 23.7871L5.05448 24.8626L4.88086 25.4292L1.45659 24.3537Z" fill="white"/>
<path d="M1.98706 22.7595L2.19927 22.2121L2.72014 22.4137C2.40183 22.0296 2.3536 21.5975 2.50794 21.1941C2.55617 21.0597 2.63333 20.9541 2.7105 20.9156L3.20244 21.1077C3.13492 21.1845 3.07704 21.2998 3.02881 21.4342C2.76837 22.0968 3.06739 22.5482 3.67508 22.7787L5.54638 23.4989L5.33417 24.0463L1.99671 22.7499L1.98706 22.7595Z" fill="white"/>
<path d="M8.05438 21.3958L3.66553 18.8798L3.96455 18.3708L4.35038 18.5917C4.17676 18.2172 4.17676 17.8235 4.38897 17.4585C4.86161 16.6423 5.75867 16.4886 6.77149 17.0744C7.82288 17.6794 8.11226 18.5149 7.63961 19.3216C7.4274 19.6865 7.09945 19.8977 6.70397 19.9362L8.3534 20.8869L8.05438 21.3958ZM5.50788 19.2447C6.26026 19.6769 6.86795 19.6193 7.17661 19.0911C7.48528 18.5533 7.23449 18.0251 6.47247 17.5834C5.72009 17.1512 5.12205 17.2089 4.82303 17.737C4.51436 18.2748 4.75551 18.803 5.51753 19.2447H5.50788Z" fill="white"/>
<path d="M4.74585 14.6545L5.08345 14.1743L9.06719 16.9592L8.72958 17.4394L4.74585 14.6545Z" fill="white"/>
<path d="M8.28587 12.2153L8.6717 11.7639L11.4111 14.0591L11.0253 14.5104L10.6587 14.1935C10.7938 14.6257 10.6877 15.029 10.3887 15.3843C9.90637 15.9509 9.28904 16.0085 8.65241 15.4803L6.8197 13.9438L7.20554 13.4925L8.94179 14.9522C9.35656 15.2979 9.77133 15.3363 10.1089 14.9426C10.4851 14.5008 10.3019 13.9054 9.90637 13.5693L8.28587 12.2057V12.2153Z" fill="white"/>
<path d="M13.3017 10.8708C13.7551 11.3605 13.6104 12.0712 12.9931 12.6473C12.3757 13.2235 11.6619 13.3292 10.9867 12.8106L11.4208 12.4073C11.8259 12.7146 12.2793 12.6665 12.6844 12.292C13.0799 11.9271 13.1185 11.5526 12.887 11.3125C12.2214 10.6019 11.0928 12.753 10.08 11.6678C9.70383 11.2645 9.67489 10.6211 10.3212 10.0257C10.8903 9.4975 11.5558 9.37266 12.2503 9.94885L11.8163 10.3522C11.3726 10.0065 10.9964 10.0641 10.6298 10.4098C10.3019 10.7075 10.2633 11.0532 10.4755 11.2645C11.1603 11.9943 12.2986 9.81441 13.3017 10.89V10.8708Z" fill="white"/>
<path d="M43.4835 31.4408V46.0856H28.7446V44.1074H40.0882L19.4171 23.5278L20.7965 22.1545L41.4675 42.6957L41.4964 31.4024L43.4835 31.4408Z" fill="white"/>
</g>
<defs>
<clipPath id="clip0_404_3368">
<rect width="67" height="68" fill="white"/>
</clipPath>
</defs>
</svg>
