<svg width="30" height="29" viewBox="0 0 30 29" fill="none" xmlns="http://www.w3.org/2000/svg">
<g clip-path="url(#clip0_404_3443)">
<path d="M22.821 28.75C23.1971 28.75 23.47 28.4672 23.47 28.0238V24.0462H24.7529C27.9785 24.0462 30 22.0588 30 18.8938V6.82649C30 3.66153 27.9785 1.67102 24.7529 1.67102H5.24724C2.01847 1.67102 0 3.68787 0 6.82649V18.8938C0 22.0216 2.01847 24.0462 5.24724 24.0462H16.9132L22.0421 28.3627C22.3134 28.5847 22.5331 28.75 22.821 28.75ZM22.6271 27.785L17.7358 23.5608C17.3838 23.2539 17.1826 23.1771 16.7721 23.1771H5.28196C2.64341 23.1771 0.884684 21.5009 0.884684 18.8567V6.85284C0.884684 4.21639 2.64341 2.53247 5.28196 2.53247H24.7181C27.4182 2.53247 29.1154 4.21639 29.1154 6.85284V18.8567C29.1154 21.5009 27.4182 23.1771 24.7181 23.1771H23.0675C22.7532 23.1771 22.6271 23.301 22.6271 23.6097V27.785Z" fill="white"/>
<path d="M8.93 16.12C7.64 16.12 6.88 15.3 6.88 13.77C6.88 11.64 8.08 9.45 10.08 9.45C11.37 9.45 12.13 10.27 12.13 11.8C12.13 13.93 10.93 16.12 8.93 16.12ZM10.01 10.21C8.66 10.21 7.79 12.04 7.79 13.76C7.79 14.79 8.2 15.36 9 15.36C10.35 15.36 11.22 13.53 11.22 11.81C11.22 10.78 10.81 10.21 10.01 10.21ZM17.6017 13.49C17.6017 14.81 16.6017 16.12 14.8317 16.12C13.3817 16.12 12.6117 15.33 12.6117 14.19H13.4917C13.4917 14.9 13.9217 15.36 14.8417 15.36C15.9917 15.36 16.6917 14.59 16.6917 13.52C16.6917 12.86 16.3817 12.34 15.4317 12.34C14.6717 12.34 14.1917 12.66 13.8817 13.02L13.1017 12.94L13.9617 9.57H18.0717L17.9317 10.27H14.5417L14.1017 12C14.5117 11.73 14.9817 11.58 15.5517 11.58C17.0017 11.58 17.6017 12.41 17.6017 13.49ZM20.4534 16.12C19.1634 16.12 18.4034 15.3 18.4034 13.77C18.4034 11.64 19.6034 9.45 21.6034 9.45C22.8934 9.45 23.6534 10.27 23.6534 11.8C23.6534 13.93 22.4534 16.12 20.4534 16.12ZM21.5334 10.21C20.1834 10.21 19.3134 12.04 19.3134 13.76C19.3134 14.79 19.7234 15.36 20.5234 15.36C21.8734 15.36 22.7434 13.53 22.7434 11.81C22.7434 10.78 22.3334 10.21 21.5334 10.21Z" fill="white"/>
</g>
<defs>
<clipPath id="clip0_404_3443">
<rect width="30" height="28.75" fill="white"/>
</clipPath>
</defs>
</svg>
