<svg width="27" height="28" viewBox="0 0 27 28" fill="none" xmlns="http://www.w3.org/2000/svg">
<g clip-path="url(#clip0_348_59)">
<path d="M4.04133 27.0836H22.9553C25.6057 27.0836 27 25.6584 27 23.047V4.12358C27 1.51224 25.6057 0.0870018 22.9553 0.0870018H4.04133C1.39434 0.0870018 0 1.47468 0 4.12358V23.047C0 25.6875 1.39434 27.0836 4.04133 27.0836ZM4.08032 26.1267C2.02283 26.1267 0.957012 25.0589 0.957012 22.9999V4.17065C0.957012 2.11173 2.02283 1.04401 4.08032 1.04401H22.9196C24.8987 1.04401 26.0429 2.11173 26.0429 4.17065V22.9999C26.0429 25.0589 24.8987 26.1267 22.9196 26.1267H4.08032Z" fill="black"/>
<path d="M8.79337 21.6661C9.00968 21.6661 9.15514 21.5614 9.39856 21.3128L13.4432 17.1313C13.4873 17.0924 13.533 17.0924 13.5686 17.1313L17.6132 21.3128C17.8568 21.5614 18.0107 21.6661 18.2185 21.6661C18.557 21.6661 18.7857 21.4018 18.7857 21.0432V7.82213C18.7857 6.49722 18.0711 5.77937 16.758 5.77937H10.2538C8.94073 5.77937 8.23477 6.49722 8.23477 7.82213V21.0432C8.23477 21.4018 8.45488 21.6661 8.79337 21.6661Z" fill="black"/>
</g>
<defs>
<clipPath id="clip0_348_59">
<rect width="27" height="27.0836" fill="white"/>
</clipPath>
</defs>
</svg>
