<svg width="27" height="28" viewBox="0 0 27 28" fill="none" xmlns="http://www.w3.org/2000/svg">
<g id="Group">
<path id="Vector" d="M4.04133 27.0836H22.9553C25.6057 27.0836 27 25.6584 27 23.0471V4.12361C27 1.51227 25.6057 0.0870361 22.9553 0.0870361H4.04133C1.39434 0.0870361 0 1.47471 0 4.12361V23.0471C0 25.6875 1.39434 27.0836 4.04133 27.0836ZM4.08032 26.1267C2.02283 26.1267 0.957012 25.0589 0.957012 23V4.17069C0.957012 2.11177 2.02283 1.04405 4.08032 1.04405H22.9196C24.8987 1.04405 26.0429 2.11177 26.0429 4.17069V23C26.0429 25.0589 24.8987 26.1267 22.9196 26.1267H4.08032Z" fill="white"/>
<path id="Vector_2" d="M8.79333 21.6662C9.00965 21.6662 9.15511 21.5615 9.39853 21.3129L13.4431 17.1314C13.4873 17.0924 13.533 17.0924 13.5686 17.1314L17.6132 21.3129C17.8567 21.5615 18.0107 21.6662 18.2184 21.6662C18.557 21.6662 18.7857 21.4018 18.7857 21.0433V7.82219C18.7857 6.49727 18.071 5.77942 16.758 5.77942H10.2537C8.9407 5.77942 8.23474 6.49727 8.23474 7.82219V21.0433C8.23474 21.4018 8.45485 21.6662 8.79333 21.6662Z" fill="white"/>
</g>
</svg>
